<?xml version="1.0"?>
<svg xmlns="http://www.w3.org/2000/svg" xmlns:xlink="http://www.w3.org/1999/xlink" xmlns:svgjs="http://svgjs.com/svgjs" version="1.1" width="512" height="512" x="0" y="0" viewBox="0 0 512 512" style="enable-background:new 0 0 512 512" xml:space="preserve"><g><g xmlns="http://www.w3.org/2000/svg"><path d="M96,456H40a8,8,0,0,0,0,16H96a8,8,0,0,0,0-16Z" fill="#ffffff" data-original="#000000" style=""/><path d="M128,456h-8a8,8,0,0,0,0,16h8a8,8,0,0,0,0-16Z" fill="#ffffff" data-original="#000000" style=""/><path d="M472,8H168a32.036,32.036,0,0,0-32,32V152H88a48.051,48.051,0,0,0-48,48V432H16a8,8,0,0,0-8,8v24a32.036,32.036,0,0,0,32,32H456a32.036,32.036,0,0,0,32-32V440a8,8,0,0,0-8-8H456V336h16a32.036,32.036,0,0,0,32-32V40A32.036,32.036,0,0,0,472,8ZM168,336H408v72H88V200h48V304A32.036,32.036,0,0,0,168,336ZM56,200a32.036,32.036,0,0,1,32-32h48v16H80a8,8,0,0,0-8,8V416a8,8,0,0,0,8,8H416a8,8,0,0,0,8-8V336h16v96H56ZM268.9,448l-2.67,8H229.77l-2.67-8ZM472,448v16a16.021,16.021,0,0,1-16,16H40a16.021,16.021,0,0,1-16-16V448H210.23l6.18,18.53A8,8,0,0,0,224,472h48a8,8,0,0,0,7.59-5.47L285.77,448Zm16-144a16.021,16.021,0,0,1-16,16H168a16.021,16.021,0,0,1-16-16V72H488Zm0-248H152V40a16.021,16.021,0,0,1,16-16H472a16.021,16.021,0,0,1,16,16Z" fill="#ffffff" data-original="#000000" style=""/><circle cx="168" cy="40" r="8" fill="#ffffff" data-original="#000000" style=""/><circle cx="192" cy="40" r="8" fill="#ffffff" data-original="#000000" style=""/><circle cx="216" cy="40" r="8" fill="#ffffff" data-original="#000000" style=""/><path d="M336,88H176a8,8,0,0,0-8,8v72a8,8,0,0,0,8,8H336a8,8,0,0,0,8-8V96A8,8,0,0,0,336,88Zm-8,72H184V104H328Z" fill="#ffffff" data-original="#000000" style=""/><path d="M336,184H176a8,8,0,0,0,0,16H336a8,8,0,0,0,0-16Z" fill="#ffffff" data-original="#000000" style=""/><path d="M336,208H176a8,8,0,0,0,0,16H336a8,8,0,0,0,0-16Z" fill="#ffffff" data-original="#000000" style=""/><path d="M336,264H176a8,8,0,0,0,0,16H336a8,8,0,0,0,0-16Z" fill="#ffffff" data-original="#000000" style=""/><path d="M256,288H176a8,8,0,0,0,0,16h80a8,8,0,0,0,0-16Z" fill="#ffffff" data-original="#000000" style=""/><path d="M176,248h96a8,8,0,0,0,0-16H176a8,8,0,0,0,0,16Z" fill="#ffffff" data-original="#000000" style=""/><path d="M304,248a8,8,0,0,0,0-16h-8a8,8,0,0,0,0,16Z" fill="#ffffff" data-original="#000000" style=""/><path d="M464,88H360a8,8,0,0,0-8,8V296a8,8,0,0,0,8,8H464a8,8,0,0,0,8-8V96A8,8,0,0,0,464,88Zm-8,200H368V104h88Z" fill="#ffffff" data-original="#000000" style=""/><path d="M288,288h-8a8,8,0,0,0,0,16h8a8,8,0,0,0,0-16Z" fill="#ffffff" data-original="#000000" style=""/></g></g></svg>
